<svg width="24" height="24" viewBox="0 0 24 24" fill="none" xmlns="http://www.w3.org/2000/svg">
<path d="M1 3C1 1.89543 1.89543 1 3 1H20C21.1046 1 22 1.89543 22 3V23L16.75 20L12.4923 22.433C11.8774 22.7843 11.1226 22.7843 10.5077 22.433L6.25 20L1 23V3Z" stroke="#555555" stroke-width="1.5" stroke-linejoin="round"/>
<path d="M15.4773 16.0909V5.18182H16.1761V16.0909H15.4773ZM17.8295 8.45455C17.7784 8.02273 17.571 7.6875 17.2074 7.44886C16.8438 7.21023 16.3977 7.09091 15.8693 7.09091C15.483 7.09091 15.1449 7.15341 14.8551 7.27841C14.5682 7.40341 14.3438 7.57528 14.1818 7.79403C14.0227 8.01278 13.9432 8.26136 13.9432 8.53977C13.9432 8.77273 13.9986 8.97301 14.1094 9.14062C14.223 9.3054 14.3679 9.44318 14.544 9.55398C14.7202 9.66193 14.9048 9.75142 15.098 9.82244C15.2912 9.89062 15.4688 9.94602 15.6307 9.98864L16.517 10.2273C16.7443 10.2869 16.9972 10.3693 17.2756 10.4744C17.5568 10.5795 17.8253 10.723 18.081 10.9048C18.3395 11.0838 18.5526 11.3139 18.7202 11.5952C18.8878 11.8764 18.9716 12.2216 18.9716 12.6307C18.9716 13.1023 18.848 13.5284 18.6009 13.9091C18.3565 14.2898 17.9986 14.5923 17.527 14.8168C17.0582 15.0412 16.4886 15.1534 15.8182 15.1534C15.1932 15.1534 14.652 15.0526 14.1946 14.8509C13.7401 14.6491 13.3821 14.3679 13.1207 14.0071C12.8622 13.6463 12.7159 13.2273 12.6818 12.75H13.7727C13.8011 13.0795 13.9119 13.3523 14.1051 13.5682C14.3011 13.7812 14.5483 13.9403 14.8466 14.0455C15.1477 14.1477 15.4716 14.1989 15.8182 14.1989C16.2216 14.1989 16.5838 14.1335 16.9048 14.0028C17.2259 13.8693 17.4801 13.6847 17.6676 13.4489C17.8551 13.2102 17.9489 12.9318 17.9489 12.6136C17.9489 12.3239 17.8679 12.0881 17.706 11.9062C17.544 11.7244 17.331 11.5767 17.0668 11.4631C16.8026 11.3494 16.517 11.25 16.2102 11.1648L15.1364 10.858C14.4545 10.6619 13.9148 10.3821 13.517 10.0185C13.1193 9.65483 12.9205 9.17898 12.9205 8.59091C12.9205 8.10227 13.0526 7.67614 13.3168 7.3125C13.5838 6.94602 13.9418 6.66193 14.3906 6.46023C14.8423 6.25568 15.3466 6.15341 15.9034 6.15341C16.4659 6.15341 16.9659 6.25426 17.4034 6.45597C17.8409 6.65483 18.1875 6.92756 18.4432 7.27415C18.7017 7.62074 18.8381 8.0142 18.8523 8.45455H17.8295Z" fill="#555555"/>
<path d="M3 4H9" stroke="#555555" stroke-width="1.5"/>
<path d="M3 8H11" stroke="#555555" stroke-width="1.5"/>
<path d="M3 12H9" stroke="#555555" stroke-width="1.5"/>
<path d="M3 16H11" stroke="#555555" stroke-width="1.5"/>
</svg>
