<svg width="11" height="11" viewBox="0 0 11 11" fill="none" xmlns="http://www.w3.org/2000/svg">
<path d="M1.30846 6.13998H1.30806V6.1721V6.1806L1.30771 6.18057C1.30191 6.24877 1.2808 6.31479 1.24596 6.37371L1.24443 6.37629L1.24439 6.37626C1.21291 6.42604 1.17148 6.46877 1.1227 6.50178C1.07393 6.53479 1.01885 6.55737 0.960943 6.5681C0.903032 6.57883 0.843528 6.57748 0.786162 6.56414C0.728796 6.55079 0.674806 6.52574 0.627577 6.49055L0.624952 6.4886L0.624986 6.48855C0.549792 6.42861 0.495957 6.34599 0.471486 6.25299L0.469874 6.24686L0.47007 6.24682C0.460761 6.19945 0.454938 6.15102 0.449629 6.10686C0.448109 6.09422 0.446631 6.08193 0.445126 6.07012L0.444919 6.0685L0.444933 6.0685C0.375544 5.44245 0.420114 4.80901 0.576485 4.19885L0.576574 4.1985C0.706812 3.69786 0.913074 3.22016 1.18817 2.78207L1.18827 2.78191C1.76919 1.8606 2.62865 1.14843 3.64186 0.748806L3.64243 0.748585C4.19633 0.533985 4.78309 0.416468 5.37691 0.401195C5.43753 0.399512 5.49846 0.399512 5.55777 0.399512H5.55845H5.55958V0.399518C6.49095 0.410039 7.40154 0.676102 8.19205 1.16869L8.19236 1.16888C8.36005 1.27422 8.52145 1.38916 8.67574 1.5131C8.67659 1.40368 8.67997 1.29429 8.68589 1.18501L8.68609 1.1814L8.68615 1.18141C8.69518 1.08164 8.73888 0.988184 8.80965 0.917283C8.88042 0.846383 8.97379 0.802513 9.07354 0.793296L9.08134 0.792576L9.08134 0.792882L9.12061 0.792332L9.12718 0.79224L9.12717 0.792455C9.23307 0.797923 9.33316 0.842544 9.408 0.917657C9.48285 0.992769 9.52712 1.09301 9.53221 1.19893L9.53234 1.20164L9.5323 1.20164C9.53381 1.27362 9.53554 1.34583 9.53728 1.41823C9.54643 1.79834 9.55569 2.18369 9.53214 2.56834L9.532 2.57055L9.53198 2.57055C9.52824 2.61541 9.51752 2.65941 9.50023 2.70097L9.49965 2.70236C9.46893 2.77312 9.41971 2.8343 9.35715 2.87944C9.29459 2.92457 9.22102 2.952 9.14418 2.95884L9.14138 2.95909L9.14138 2.95905C8.6803 2.98701 8.21854 2.98701 7.75746 2.95905L7.75329 2.9588L7.75329 2.95871C7.66286 2.94942 7.57776 2.91149 7.51038 2.85047C7.44301 2.78944 7.39688 2.70849 7.37871 2.61941C7.36055 2.53034 7.3713 2.43779 7.4094 2.35526L7.50019 2.39717L7.4094 2.35525C7.4475 2.27272 7.51096 2.2045 7.59053 2.16054L7.59288 2.15924L7.5929 2.15927C7.64861 2.13042 7.70998 2.11416 7.77267 2.11164L7.77252 2.11164L1.30846 6.13998ZM1.30846 6.13998L1.30767 6.13115M1.30846 6.13998L1.30767 6.13115M8.06304 2.111H7.78959V2.11091L7.78528 2.11109L7.77285 2.11163L8.06304 2.111ZM8.06304 2.111C7.75223 1.87536 7.4104 1.68292 7.04684 1.5393C6.0179 1.14047 4.8747 1.15427 3.85569 1.57783C3.48361 1.73396 3.13592 1.9428 2.8233 2.19793L8.06304 2.111ZM1.30767 6.13115C1.30339 6.08282 1.29753 6.03478 1.2919 5.98854L1.29186 5.98823C1.28615 5.94139 1.28067 5.89637 1.27666 5.85149C1.19695 4.93334 1.41828 4.0142 1.90719 3.23298M1.30767 6.13115L1.90719 3.23298M1.90719 3.23298C2.15469 2.84078 2.46405 2.49125 2.82328 2.19795L1.90719 3.23298ZM2.29469 9.80584C2.302 9.68517 2.30433 9.56488 2.30426 9.44536C2.65897 9.73232 3.05086 9.97059 3.46955 10.1536L3.47008 10.1538C4.60816 10.6434 5.88484 10.7052 7.0649 10.3278L7.06518 10.3277C7.52152 10.1803 7.95464 9.96884 8.35159 9.69974L8.3516 9.69974C8.80867 9.38977 9.21264 9.00797 9.54787 8.56909L9.54803 8.56889C10.3332 7.53555 10.6946 6.2416 10.5585 4.95096L10.5585 4.95095L10.5583 4.94878C10.5564 4.93397 10.5545 4.91835 10.5526 4.90224C10.5478 4.86181 10.5426 4.81825 10.5356 4.77637L10.5357 4.77634L10.5344 4.77072C10.5141 4.68196 10.4658 4.60208 10.3966 4.54286C10.3275 4.48364 10.2411 4.44822 10.1503 4.44182L10.1503 4.44168L10.145 4.44159C10.1105 4.44099 10.1076 4.44106 10.0732 4.44346L10.0732 4.44331L10.0677 4.444C9.96307 4.4571 9.86707 4.50865 9.79836 4.58861L9.8742 4.65379L9.79836 4.58861C9.72964 4.66858 9.69313 4.77124 9.69591 4.87663L9.69573 4.87664L9.69625 4.88267L9.699 4.91424L9.69891 4.91425L9.69947 4.91853C9.77488 5.49491 9.73363 6.08057 9.57819 6.64069C9.31752 7.56814 8.74747 8.37854 7.96269 8.93733L7.96254 8.93744C7.63711 9.17011 7.28019 9.35521 6.90254 9.48719C5.96007 9.81389 4.93313 9.8015 3.99882 9.45215C3.62614 9.31013 3.27554 9.11696 2.95696 8.87855L3.19092 8.87856L3.19202 8.87855C3.25164 8.87789 3.31046 8.86485 3.36477 8.84025L3.3235 8.74916L3.36477 8.84025C3.41907 8.81565 3.46767 8.78003 3.50748 8.73565L3.50749 8.73567L3.50892 8.73401C3.56077 8.6736 3.59471 8.59989 3.6069 8.52122C3.61909 8.44254 3.60905 8.36202 3.57791 8.28875C3.54676 8.21547 3.49577 8.15236 3.43066 8.10653C3.36556 8.06071 3.28894 8.03399 3.20946 8.02939L3.20946 8.02932L3.20565 8.02924C3.13787 8.02791 3.06989 8.02639 3.00174 8.02487C2.61728 8.01631 2.22759 8.00763 1.83931 8.03049L1.8393 8.03044L1.83607 8.03074C1.75948 8.03775 1.68617 8.06514 1.62375 8.11005C1.56132 8.15497 1.51206 8.21578 1.48108 8.28616L1.48106 8.28615L1.48024 8.28812C1.46273 8.33032 1.45221 8.37473 1.44852 8.4197L1.4485 8.4197L1.44836 8.42187C1.42537 8.80451 1.43416 9.18863 1.44283 9.56744C1.44452 9.64129 1.44621 9.71494 1.44765 9.78834L1.44761 9.78834L1.44775 9.79128C1.45136 9.86464 1.47329 9.93592 1.51155 9.99862L1.51151 9.99865L1.51327 10.0013C1.54908 10.056 1.59691 10.1017 1.65311 10.1351C1.7093 10.1684 1.77237 10.1885 1.8375 10.1937C1.90263 10.1989 1.9681 10.1892 2.02889 10.1653C2.08969 10.1413 2.14421 10.1038 2.18828 10.0556L2.18831 10.0556L2.19018 10.0534C2.24938 9.98482 2.28581 9.89951 2.29442 9.8093L2.29448 9.8093L2.29469 9.80584Z" fill="black" stroke="black" stroke-width="0.2"/>
</svg>
